<svg version="1.0" xmlns="http://www.w3.org/2000/svg" width="1000px" height="120px" viewBox="30 40 960 30" preserveAspectRatio="xMidYMid meet">
	<g transform="translate(0.000000,200.000000) scale(0.15,-0.15)">
		<path d="M460 1301 c-131 -24 -199 -61 -229 -124 -26 -54 -27 -93 -1 -134 44 -73 128 -93 390 -93 202 0 260 -9 260 -40 0 -29 -31 -40 -123 -47 -101 -6 -230 11 -275 37 -28 17 -51 20 -159 20 l-126 0 6 -37 c14 -84 122 -160 270 -188 98 -19 325 -19 428 -1 149 27 219 89 219 195 0 59 -35 102 -105 130 -55 23 -78 25 -290 31 -233 7 -265 11 -265 36 0 22 34 33 122 40 109 8 223 -8 252 -35 20 -19 35 -21 145 -21 l123 0 -7 38 c-15 83 -79 141 -195 177 -62 20 -362 30 -440 16z"/>
		<path d="M2481 1299 c-184 -28 -292 -99 -327 -215 -42 -140 14 -276 139 -337 108 -53 170 -62 417 -62 252 1 317 11 422 67 98 52 141 127 141 243 0 116 -43 191 -140 243 -98 52 -165 63 -388 67 -110 2 -229 -1 -264 -6z m358 -179 c95 -13 151 -43 169 -92 13 -33 12 -41 -4 -74 -26 -52 -73 -73 -194 -86 -175 -19 -353 11 -401 68 -8 9 -14 36 -14 59 0 23 6 50 14 59 51 61 241 90 430 66z"/>
		<path d="M5810 1301 c-131 -24 -199 -61 -229 -124 -26 -54 -27 -93 -1 -134 44 -73 128 -93 390 -93 202 0 260 -9 260 -40 0 -29 -31 -40 -123 -47 -101 -6 -230 11 -275 37 -28 17 -51 20 -159 20 l-126 0 6 -37 c14 -84 122 -160 270 -188 98 -19 325 -19 428 -1 149 27 219 89 219 195 0 59 -35 102 -105 130 -55 23 -78 25 -290 31 -233 7 -265 11 -265 36 0 22 34 33 122 40 109 8 223 -8 252 -35 20 -19 35 -21 145 -21 l123 0 -7 38 c-15 83 -79 141 -195 177 -62 20 -362 30 -440 16z"/>
		<path d="M1130 1200 l0 -90 185 0 185 0 0 -210 0 -210 120 0 120 0 0 210 0 210 185 0 185 0 0 90 0 90 -490 0 -490 0 0 -90z"/>
		<path d="M3350 990 l0 -300 120 0 120 0 2 173 3 173 299 -173 299 -173 124 0 123 0 0 300 0 300 -120 0 -120 0 -2 -179 -3 -179 -299 179 -299 179 -124 0 -123 0 0 -300z"/>
		<path d="M4540 990 l0 -300 120 0 120 0 0 150 c0 83 3 150 6 150 3 0 103 -67 222 -150 l215 -150 181 0 c154 0 178 2 161 13 -11 8 -120 78 -242 157 -123 78 -223 146 -223 149 0 4 96 67 214 141 l214 135 -169 3 -169 2 -197 -132 c-109 -73 -201 -134 -205 -136 -4 -2 -8 57 -8 132 l0 136 -120 0 -120 0 0 -300z"/>
	</g>
</svg>
